<svg xmlns="http://www.w3.org/2000/svg" version="1.1" xmlns:xlink="http://www.w3.org/1999/xlink" width="100" height="100"><svg xmlns="http://www.w3.org/2000/svg" viewBox="0 0 100 100" width="100" height="100">
  <!-- Background circle -->
  <circle cx="50" cy="50" r="45" fill="#9f7aea"></circle>
  
  <!-- Calculator display -->
  <rect x="25" y="20" width="50" height="15" rx="2" ry="2" fill="#f7fafc" stroke="#4a5568" stroke-width="1"></rect>
  
  <!-- Display text - "123" -->
  <text x="65" y="32" font-family="monospace" font-size="12" font-weight="bold" text-anchor="end" fill="#1a202c">123</text>
  
  <!-- Calculator buttons -->
  <rect x="25" y="40" width="10" height="10" rx="2" ry="2" fill="#f7fafc" stroke="#4a5568" stroke-width="1"></rect>
  <rect x="40" y="40" width="10" height="10" rx="2" ry="2" fill="#f7fafc" stroke="#4a5568" stroke-width="1"></rect>
  <rect x="55" y="40" width="10" height="10" rx="2" ry="2" fill="#f7fafc" stroke="#4a5568" stroke-width="1"></rect>
  <rect x="70" y="40" width="10" height="10" rx="2" ry="2" fill="#f7fafc" stroke="#4a5568" stroke-width="1"></rect>
  
  <rect x="25" y="55" width="10" height="10" rx="2" ry="2" fill="#f7fafc" stroke="#4a5568" stroke-width="1"></rect>
  <rect x="40" y="55" width="10" height="10" rx="2" ry="2" fill="#f7fafc" stroke="#4a5568" stroke-width="1"></rect>
  <rect x="55" y="55" width="10" height="10" rx="2" ry="2" fill="#f7fafc" stroke="#4a5568" stroke-width="1"></rect>
  <rect x="70" y="55" width="10" height="25" rx="2" ry="2" fill="#f7fafc" stroke="#4a5568" stroke-width="1"></rect>
  
  <rect x="25" y="70" width="10" height="10" rx="2" ry="2" fill="#f7fafc" stroke="#4a5568" stroke-width="1"></rect>
  <rect x="40" y="70" width="10" height="10" rx="2" ry="2" fill="#f7fafc" stroke="#4a5568" stroke-width="1"></rect>
  <rect x="55" y="70" width="10" height="10" rx="2" ry="2" fill="#f7fafc" stroke="#4a5568" stroke-width="1"></rect>
  
  <!-- Button symbols -->
  <text x="30" y="48" font-family="sans-serif" font-size="8" text-anchor="middle" fill="#1a202c">7</text>
  <text x="45" y="48" font-family="sans-serif" font-size="8" text-anchor="middle" fill="#1a202c">8</text>
  <text x="60" y="48" font-family="sans-serif" font-size="8" text-anchor="middle" fill="#1a202c">9</text>
  <text x="75" y="48" font-family="sans-serif" font-size="8" text-anchor="middle" fill="#1a202c">รท</text>
  
  <text x="30" y="63" font-family="sans-serif" font-size="8" text-anchor="middle" fill="#1a202c">4</text>
  <text x="45" y="63" font-family="sans-serif" font-size="8" text-anchor="middle" fill="#1a202c">5</text>
  <text x="60" y="63" font-family="sans-serif" font-size="8" text-anchor="middle" fill="#1a202c">6</text>
  <text x="75" y="63" font-family="sans-serif" font-size="8" text-anchor="middle" fill="#1a202c">ร</text>
  
  <text x="30" y="78" font-family="sans-serif" font-size="8" text-anchor="middle" fill="#1a202c">1</text>
  <text x="45" y="78" font-family="sans-serif" font-size="8" text-anchor="middle" fill="#1a202c">2</text>
  <text x="60" y="78" font-family="sans-serif" font-size="8" text-anchor="middle" fill="#1a202c">3</text>
  <text x="75" y="78" font-family="sans-serif" font-size="8" text-anchor="middle" fill="#1a202c">=</text>
  
  <!-- Human silhouette -->
  <circle cx="20" cy="25" r="6" fill="#f7fafc"></circle>
  <path d="M15,32 C15,32 12,45 18,55 C18,55 22,55 22,55 C22,55 25,45 25,32 Z" fill="#f7fafc"></path>
</svg><style>@media (prefers-color-scheme: light) { :root { filter: none; } }
@media (prefers-color-scheme: dark) { :root { filter: none; } }
</style></svg>